<?xml version="1.0" standalone="no"?>
<!DOCTYPE svg PUBLIC "-//W3C//DTD SVG 20010904//EN"
 "http://www.w3.org/TR/2001/REC-SVG-20010904/DTD/svg10.dtd">
<svg version="1.0" xmlns="http://www.w3.org/2000/svg"
 width="420.000000pt" height="420.000000pt" viewBox="0 0 420.000000 420.000000"
 preserveAspectRatio="xMidYMid meet">
<metadata>
Created by potrace 1.11, written by Peter Selinger 2001-2013
</metadata>
<g transform="translate(0.000000,420.000000) scale(0.100000,-0.100000)"
fill="#000000" stroke="none">
<path d="M489 3897 c-4 -13 -6 -49 -3 -39 3 6 12 12 20 12 8 0 14 6 14 13 0 7
3 8 8 2 4 -5 18 -11 32 -13 14 -2 38 -10 53 -17 15 -8 35 -11 44 -8 12 5 14 3
8 -8 -4 -8 -5 -11 -1 -7 4 3 22 0 41 -7 18 -8 35 -11 39 -8 3 4 6 1 6 -6 0 -7
4 -10 8 -7 5 3 20 -6 35 -20 14 -13 31 -24 37 -24 6 0 8 -4 5 -10 -3 -5 3 -10
14 -10 12 0 21 -4 21 -10 0 -5 5 -10 11 -10 15 0 39 -26 31 -35 -4 -4 0 -5 8
-3 8 1 14 -3 12 -10 -1 -6 4 -11 10 -10 7 2 12 -3 10 -10 -1 -8 2 -11 7 -8 5
4 14 -2 20 -11 6 -10 11 -12 11 -6 0 14 -73 89 -110 113 -12 8 -29 21 -36 28
-8 7 -14 11 -14 7 0 -3 -10 4 -22 16 -19 17 -56 38 -78 44 -3 0 -15 6 -27 13
-12 6 -30 13 -40 15 -10 2 -31 9 -46 16 -16 6 -33 9 -38 5 -5 -3 -9 -1 -9 4 0
7 -79 17 -81 9z"/>
<path d="M272 3618 c-6 -51 -8 -96 -4 -99 4 -4 30 -12 57 -18 28 -6 55 -13 60
-14 14 -4 116 -54 140 -69 52 -33 153 -149 188 -216 21 -40 35 -72 31 -72 -3
0 -2 -6 4 -12 27 -33 28 -80 35 -1223 2 -275 7 -513 10 -530 4 -16 15 -55 23
-85 9 -30 17 -59 18 -65 2 -5 10 -27 19 -49 9 -21 17 -42 17 -47 0 -40 162
-276 235 -342 11 -10 38 -35 60 -56 22 -21 60 -51 85 -67 25 -16 47 -32 48
-36 2 -5 8 -8 14 -8 5 0 23 -9 38 -20 50 -36 229 -103 310 -116 14 -3 32 -7
40 -10 8 -3 56 -8 105 -11 l91 -5 -1 96 -1 96 40 1 c51 1 77 4 141 13 28 5 51
8 52 7 2 0 21 6 43 14 22 8 41 14 43 14 34 -6 262 105 347 170 94 70 223 202
238 242 2 5 8 7 12 4 5 -3 20 9 33 27 27 37 42 72 27 63 -6 -4 -5 5 1 19 7 14
16 23 20 20 5 -3 6 3 2 12 -4 12 -3 15 5 10 8 -5 10 -1 5 10 -5 13 -3 15 7 9
9 -5 11 -4 6 4 -4 6 2 26 13 45 11 18 18 36 14 39 -3 4 -1 7 5 7 6 0 9 7 5 17
-4 10 -2 14 4 10 7 -4 10 0 9 10 -2 10 3 38 10 62 7 24 12 47 12 50 -1 3 1 20
5 36 15 66 16 135 17 798 0 451 4 686 10 682 6 -4 8 -11 5 -16 -4 -5 5 -5 20
1 14 5 24 6 21 1 -3 -5 5 -11 19 -13 16 -3 22 -1 19 6 -3 6 2 2 10 -8 16 -20
51 -33 41 -15 -4 5 1 6 9 3 9 -3 14 -10 13 -16 -1 -6 6 -12 16 -13 20 -4 22 6
5 24 -7 7 11 -1 40 -19 109 -67 238 -229 256 -323 9 -47 17 -57 37 -46 10 5
19 8 19 5 0 -3 15 0 33 5 17 5 48 12 67 15 19 3 38 9 42 13 11 10 -46 164 -82
225 -43 70 -116 155 -181 211 -53 46 -194 124 -232 130 -12 2 -49 11 -82 19
-33 9 -112 19 -175 21 -184 9 -1770 12 -1770 4 0 -4 7 -9 15 -13 8 -3 15 0 15
7 0 7 3 8 8 2 9 -13 165 -13 174 0 5 6 8 6 8 0 0 -6 35 -10 85 -10 50 0 85 4
85 10 0 7 3 7 8 0 9 -13 165 -13 174 0 5 7 8 7 8 0 0 -6 19 -9 45 -7 25 2 57
1 70 -2 24 -6 25 -9 25 -91 0 -68 3 -85 15 -86 8 -1 213 -3 455 -4 242 -1 443
-3 448 -4 4 0 7 -322 6 -713 -1 -777 0 -766 -60 -915 -129 -321 -432 -552
-762 -580 -41 -3 -79 -11 -86 -18 -7 -8 -11 -42 -11 -91 1 -43 -3 -82 -8 -85
-13 -9 -101 -1 -187 17 -330 70 -602 327 -693 654 -28 101 -31 161 -31 852 -1
605 1 687 14 690 8 2 214 4 458 3 l442 0 0 97 0 98 -463 0 c-364 0 -464 3
-464 13 0 30 -38 138 -73 212 -94 196 -285 349 -505 405 -43 11 -84 20 -90 20
-7 0 -16 -35 -23 -92z"/>
<path d="M1000 3613 c0 -9 53 -87 63 -91 4 -2 5 -8 1 -13 -3 -5 0 -9 5 -9 22
0 15 13 -38 76 -5 7 -8 13 -6 15 1 2 -3 10 -11 17 -8 7 -14 9 -14 5z"/>
<path d="M1084 3474 c9 -8 16 -20 16 -26 0 -6 3 -9 6 -6 8 9 -14 48 -27 48 -6
0 -3 -7 5 -16z"/>
<path d="M2093 3429 c-2 -21 12 -25 22 -8 4 6 13 8 21 5 8 -3 14 0 14 7 0 9 3
8 9 -1 4 -8 12 -14 16 -14 4 0 12 6 16 14 5 7 9 8 9 2 0 -14 30 -14 30 0 0 6
4 5 9 -2 4 -8 12 -14 16 -14 4 0 12 6 16 14 5 7 9 8 9 2 0 -14 30 -14 30 0 0
6 4 5 9 -2 4 -8 12 -14 16 -14 4 0 12 6 16 14 5 7 9 8 9 2 0 -6 7 -11 15 -11
8 0 15 5 15 11 0 6 4 5 9 -2 4 -8 12 -14 16 -14 4 0 12 6 16 14 5 7 9 8 9 2 0
-6 7 -11 15 -11 8 0 15 5 15 11 0 6 4 5 9 -2 4 -8 12 -14 16 -14 4 0 12 6 16
14 5 7 9 8 9 2 0 -6 7 -11 15 -11 8 0 15 5 15 11 0 6 4 5 9 -2 4 -8 12 -14 16
-14 4 0 12 6 16 14 5 7 9 8 9 2 0 -6 7 -11 15 -11 8 0 15 5 15 11 0 6 4 5 9
-2 4 -8 12 -14 16 -14 4 0 12 6 16 14 5 7 9 8 9 2 0 -6 7 -11 15 -11 8 0 15 5
15 11 0 6 4 5 9 -2 4 -8 12 -14 16 -14 4 0 12 6 16 14 5 7 9 8 9 2 0 -6 7 -11
15 -11 8 0 15 5 15 11 0 6 4 5 9 -2 4 -8 12 -14 16 -14 4 0 12 6 16 14 5 7 9
8 9 2 0 -6 7 -11 15 -11 8 0 15 5 15 11 0 6 4 5 9 -2 4 -8 12 -14 16 -14 4 0
12 6 16 14 5 7 9 8 9 2 0 -6 7 -11 15 -11 8 0 15 5 15 11 0 6 4 5 9 -2 4 -8
12 -14 16 -14 4 0 12 6 16 14 5 7 9 8 9 2 0 -6 7 -11 15 -11 8 0 15 5 15 11 0
6 4 5 9 -2 4 -8 12 -14 16 -14 4 0 12 6 16 14 7 10 9 10 9 0 0 -15 31 -12 42
3 5 7 8 7 8 0 0 -6 31 -10 75 -10 41 0 75 -3 75 -8 0 -4 4 -6 9 -2 5 3 12 1
16 -5 4 -6 11 -8 16 -5 5 4 9 1 9 -4 0 -6 3 -10 8 -10 4 1 9 0 12 -1 13 -4 47
-12 63 -13 9 -1 17 -5 17 -10 0 -4 3 -6 8 -4 11 7 72 -29 64 -38 -4 -5 -2 -5
4 -2 7 4 17 0 24 -8 7 -8 15 -13 19 -10 4 2 19 -7 34 -21 15 -14 32 -22 39
-18 6 4 9 3 5 -2 -5 -9 20 -51 28 -46 12 6 26 1 20 -8 -3 -5 1 -10 9 -10 9 0
16 -3 16 -7 0 -5 14 -24 30 -43 16 -19 34 -40 39 -46 6 -7 7 -15 4 -18 -4 -3
-1 -6 5 -6 26 0 12 22 -78 122 -30 33 -81 78 -113 100 -67 45 -189 105 -229
112 -15 3 -32 7 -38 11 -24 15 -110 18 -650 20 -555 2 -576 1 -577 -16z"/>
<path d="M3792 3056 c7 -8 17 -12 22 -9 4 3 2 9 -5 14 -22 13 -31 11 -17 -5z"/>
<path d="M3843 2975 c0 -8 4 -12 9 -9 5 3 6 10 3 15 -9 13 -12 11 -12 -6z"/>
<path d="M2005 2548 c-38 -10 -63 -35 -70 -70 -8 -33 10 -86 34 -105 14 -10
86 -36 93 -33 2 1 15 -3 29 -9 62 -23 226 -34 308 -20 116 20 128 23 197 55
37 17 55 32 64 54 24 58 -8 122 -68 137 -15 3 -55 -5 -106 -23 -72 -26 -94
-29 -196 -28 -95 0 -127 4 -186 25 -49 17 -80 22 -99 17z"/>
<path d="M1400 2368 c-101 -10 -238 -54 -272 -89 -60 -59 -20 -155 67 -164 6
-1 38 9 72 21 139 51 287 51 423 1 44 -17 70 -16 103 2 46 24 59 110 23 146
-14 15 -86 53 -101 54 -5 0 -30 5 -55 11 -77 18 -182 26 -260 18z"/>
<path d="M1193 1845 c-37 -16 -63 -51 -63 -86 0 -44 64 -210 102 -264 35 -49
107 -134 136 -159 57 -50 153 -110 222 -138 102 -42 116 -45 278 -62 l32 -4 0
99 c0 54 4 100 8 103 13 8 101 19 162 21 103 2 248 -43 342 -107 58 -40 113
-28 145 30 38 70 8 115 -130 186 -126 66 -277 97 -413 85 -120 -11 -114 -5
-114 -119 l0 -98 -61 4 c-73 5 -192 43 -252 80 -126 80 -209 188 -257 337 -28
87 -75 118 -137 92z"/>
</g>
</svg>
